<svg width="1024" height="304" viewBox="0 0 1024 304" fill="none"
  xmlns="http://www.w3.org/2000/svg">
  <g id="shapes-text-svg">
    <rect width="1024" height="304" fill="white"/>
    <path id="SHAPES" d="M120.506 251C108.897 251 98.1179 248.769 88.1676 244.307C78.2174 239.845 70.2018 233.245 64.1211 224.507C58.0404 215.583 55 204.614 55 191.6C55 190.485 55 189.369 55 188.254C55.1843 187.138 55.2764 186.208 55.2764 185.465H92.0372C92.0372 185.651 91.9451 186.301 91.7608 187.417C91.7608 188.346 91.7608 189.183 91.7608 189.927C91.7608 199.037 94.4326 206.38 99.7763 211.958C105.12 217.535 112.583 220.324 122.164 220.324C132.852 220.324 140.315 218 144.553 213.352C148.791 208.518 150.91 203.313 150.91 197.735C150.91 191.228 149.251 186.023 145.935 182.118C142.618 178.214 138.196 175.054 132.668 172.637C127.324 170.034 121.335 167.71 114.702 165.665C108.253 163.62 101.711 161.296 95.0776 158.693C88.444 156.09 82.3633 152.744 76.8354 148.654C71.4917 144.377 67.1615 138.893 63.8447 132.2C60.5279 125.507 58.8696 116.955 58.8696 106.544C58.8696 94.4591 61.8178 84.5127 67.7143 76.7042C73.6107 68.7099 81.3499 62.7606 90.9316 58.8563C100.698 54.9521 111.109 53 122.164 53C133.405 53 143.631 54.9521 152.845 58.8563C162.242 62.7606 169.705 68.8958 175.233 77.262C180.945 85.4423 183.801 96.1324 183.801 109.332V112.679H147.593V110.169C147.593 101.989 145.29 95.5746 140.683 90.9268C136.261 86.093 129.996 83.6761 121.888 83.6761C113.412 83.6761 106.871 85.6282 102.264 89.5324C97.6573 93.2507 95.354 98.0845 95.354 104.034C95.354 109.611 97.0124 114.073 100.329 117.42C103.646 120.766 107.976 123.555 113.32 125.786C118.848 128.017 124.928 130.155 131.562 132.2C138.196 134.059 144.737 136.29 151.186 138.893C157.82 141.496 163.808 144.935 169.152 149.211C174.68 153.301 179.102 158.693 182.419 165.386C185.736 171.893 187.394 180.166 187.394 190.206C187.394 204.893 184.538 216.699 178.826 225.623C173.114 234.361 165.19 240.775 155.056 244.865C145.105 248.955 133.589 251 120.506 251ZM214.447 247.654V56.3465H249.825V133.873H309.527V56.3465H344.906V247.654H309.527V165.665H249.825V247.654H214.447ZM361.434 247.654L422.517 56.3465H463.701L524.784 247.654H488.576L476.968 210.006H407.039L395.707 247.654H361.434ZM416.713 178.214H467.294L448.222 114.352C447.301 111.006 446.38 107.287 445.458 103.197C444.537 99.107 443.8 95.6676 443.247 92.8789C442.879 89.9042 442.694 88.4169 442.694 88.4169H441.589C441.589 88.4169 441.312 89.9972 440.76 93.1577C440.207 96.1324 439.47 99.6648 438.548 103.755C437.811 107.845 436.982 111.377 436.061 114.352L416.713 178.214ZM541.588 247.654V56.3465H609.306C622.389 56.3465 633.352 58.8563 642.197 63.876C651.042 68.7099 657.675 75.4958 662.098 84.2338C666.52 92.7859 668.731 102.639 668.731 113.794C668.731 125.693 666.243 136.197 661.268 145.307C656.293 154.231 649.383 161.203 640.539 166.223C631.694 171.056 621.283 173.473 609.306 173.473H576.967V247.654H541.588ZM576.967 141.961H605.713C614.373 141.961 620.914 139.451 625.337 134.431C629.943 129.411 632.247 122.532 632.247 113.794C632.247 105.986 629.943 99.7577 625.337 95.1098C620.73 90.462 614.189 88.138 605.713 88.138H576.967V141.961ZM692.743 247.654V56.3465H813.529V88.138H728.122V133.873H801.367V165.665H728.122V215.862H815.187V247.654H692.743ZM901.112 251C889.503 251 878.724 248.769 868.773 244.307C858.823 239.845 850.808 233.245 844.727 224.507C838.646 215.583 835.606 204.614 835.606 191.6C835.606 190.485 835.606 189.369 835.606 188.254C835.79 187.138 835.882 186.208 835.882 185.465H872.643C872.643 185.651 872.551 186.301 872.367 187.417C872.367 188.346 872.367 189.183 872.367 189.927C872.367 199.037 875.038 206.38 880.382 211.958C885.726 217.535 893.189 220.324 902.77 220.324C913.458 220.324 920.92 218 925.158 213.352C929.397 208.518 931.516 203.313 931.516 197.735C931.516 191.228 929.857 186.023 926.54 182.118C923.224 178.214 918.801 175.054 913.273 172.637C907.93 170.034 901.941 167.71 895.308 165.665C888.858 163.62 882.317 161.296 875.683 158.693C869.05 156.09 862.969 152.744 857.441 148.654C852.097 144.377 847.767 138.893 844.45 132.2C841.134 125.507 839.475 116.955 839.475 106.544C839.475 94.4591 842.424 84.5127 848.32 76.7042C854.216 68.7099 861.956 62.7606 871.537 58.8563C881.303 54.9521 891.714 53 902.77 53C914.01 53 924.237 54.9521 933.45 58.8563C942.848 62.7606 950.311 68.8958 955.839 77.262C961.551 85.4423 964.407 96.1324 964.407 109.332V112.679H928.199V110.169C928.199 101.989 925.895 95.5746 921.289 90.9268C916.867 86.093 910.602 83.6761 902.494 83.6761C894.018 83.6761 887.476 85.6282 882.87 89.5324C878.263 93.2507 875.96 98.0845 875.96 104.034C875.96 109.611 877.618 114.073 880.935 117.42C884.252 120.766 888.582 123.555 893.926 125.786C899.453 128.017 905.534 130.155 912.168 132.2C918.801 134.059 925.343 136.29 931.792 138.893C938.425 141.496 944.414 144.935 949.758 149.211C955.286 153.301 959.708 158.693 963.025 165.386C966.342 171.893 968 180.166 968 190.206C968 204.893 965.144 216.699 959.432 225.623C953.719 234.361 945.796 240.775 935.662 244.865C925.711 248.955 914.195 251 901.112 251Z" stroke="black"/>
  </g>
</svg>
