<svg width="1024" height="1536" viewBox="0 0 1024 1536" fill="none" xmlns="http://www.w3.org/2000/svg">
<g clip-path="url(#clip0_4901_6820)">
<rect width="1024" height="1536" fill="white"/>
<rect y="1280" width="1024" height="256" fill="#CECCCB"/>
<rect y="256" width="1024" height="1024" fill="#F3F3F3"/>
<path d="M0 256H1024L512 768L0 256Z" fill="white"/>
<path d="M1024 1280L0 1280L512 768L1024 1280Z" fill="#CECCCB"/>
<mask id="mask0_4901_6820" style="mask-type:alpha" maskUnits="userSpaceOnUse" x="122" y="378" width="780" height="780">
<circle cx="512" cy="768" r="390" fill="#D9D9D9"/>
</mask>
<g mask="url(#mask0_4901_6820)">
<rect y="256" width="1024" height="1024" fill="#292929"/>
<path d="M0 256H1024L512 768L0 256Z" fill="#3A3A3A"/>
<path d="M1024 1280L0 1280L512 768L1024 1280Z" fill="#232323"/>
</g>
<circle cx="512" cy="768" r="390" stroke="#FFD600" stroke-width="80"/>
<circle cx="512" cy="768" r="467" stroke="#DEC9FF" stroke-width="80"/>
<circle cx="512" cy="768" r="429" stroke="#00C0A9" stroke-width="4"/>
<circle cx="940" cy="768" r="52" stroke="#00C0A9" stroke-width="4"/>
<circle cx="84" cy="768" r="52" stroke="#00C0A9" stroke-width="4"/>
<circle cx="512" cy="340" r="52" transform="rotate(-90 512 340)" stroke="#00C0A9" stroke-width="4"/>
<circle cx="512" cy="1196" r="52" transform="rotate(-90 512 1196)" stroke="#00C0A9" stroke-width="4"/>
<path d="M940.513 743.784C945.611 743.784 949.462 745.8 952.065 749.832C954.667 753.843 955.969 759.496 955.969 766.792C955.969 774.109 954.667 779.805 952.065 783.88C949.462 787.933 945.611 789.96 940.513 789.96C935.393 789.96 931.531 787.933 928.929 783.88C926.347 779.805 925.057 774.109 925.057 766.792C925.057 759.496 926.347 753.843 928.929 749.832C931.531 745.8 935.393 743.784 940.513 743.784ZM940.513 750.056C938.102 750.056 936.278 751.347 935.041 753.928C933.825 756.488 933.217 760.776 933.217 766.792C933.217 770.12 933.334 772.883 933.569 775.08C933.825 777.256 934.241 778.973 934.817 780.232C935.393 781.491 936.139 782.387 937.057 782.92C937.995 783.432 939.147 783.688 940.513 783.688C942.134 783.688 943.478 783.144 944.545 782.056C945.633 780.947 946.443 779.155 946.977 776.68C947.51 774.184 947.777 770.888 947.777 766.792C947.777 762.44 947.542 759.048 947.073 756.616C946.625 754.184 945.867 752.488 944.801 751.528C943.755 750.547 942.326 750.056 940.513 750.056ZM946.049 751.496L948.225 756.744L935.617 782.6L933.025 778.312L946.049 751.496Z" fill="#2400FF"/>
<path d="M518.201 311.744V354.72H509.913V320.256L500.473 326.112L496.857 320.256L510.745 311.744H518.201ZM526.809 349.504V356H499.193V349.504H526.809Z" fill="#2400FF"/>
<path d="M81.8165 743.784C84.9952 743.784 87.6618 744.349 89.8165 745.48C91.9925 746.611 93.6352 748.136 94.7445 750.056C95.8538 751.955 96.4085 754.045 96.4085 756.328C96.4085 758.205 96.0885 760.04 95.4485 761.832C94.8085 763.624 93.7632 765.512 92.3125 767.496C90.8832 769.48 88.9845 771.688 86.6165 774.12C84.2485 776.531 81.3258 779.283 77.8485 782.376H97.4325L96.5045 789H68.1845V782.824C71.2352 779.88 73.8698 777.288 76.0885 775.048C78.3072 772.787 80.1632 770.792 81.6565 769.064C83.1712 767.336 84.3658 765.789 85.2405 764.424C86.1365 763.037 86.7765 761.747 87.1605 760.552C87.5445 759.357 87.7365 758.163 87.7365 756.968C87.7365 754.941 87.1498 753.341 85.9765 752.168C84.8245 750.995 83.2032 750.408 81.1125 750.408C79.2565 750.408 77.6778 750.771 76.3765 751.496C75.0965 752.2 73.8378 753.352 72.6005 754.952L67.2885 750.92C68.9738 748.659 70.9792 746.909 73.3045 745.672C75.6298 744.413 78.4672 743.784 81.8165 743.784Z" fill="#2400FF"/>
<path d="M509.657 1171.78C512.707 1171.78 515.31 1172.3 517.465 1173.32C519.641 1174.32 521.305 1175.68 522.457 1177.38C523.609 1179.09 524.185 1180.97 524.185 1183.02C524.185 1184.85 523.801 1186.48 523.033 1187.91C522.286 1189.32 521.241 1190.49 519.897 1191.43C518.574 1192.37 517.038 1193.06 515.289 1193.51C517.23 1193.75 518.969 1194.28 520.505 1195.11C522.062 1195.92 523.299 1197.1 524.217 1198.63C525.134 1200.15 525.593 1202.09 525.593 1204.46C525.593 1206.95 524.921 1209.22 523.577 1211.27C522.233 1213.32 520.323 1214.95 517.849 1216.17C515.395 1217.36 512.483 1217.96 509.113 1217.96C506.105 1217.96 503.321 1217.43 500.76 1216.36C498.201 1215.27 496.025 1213.68 494.233 1211.59L499.193 1207.11C500.451 1208.58 501.891 1209.66 503.513 1210.34C505.155 1211.03 506.862 1211.37 508.633 1211.37C511.129 1211.37 513.123 1210.73 514.617 1209.45C516.131 1208.15 516.889 1206.32 516.889 1203.98C516.889 1202.23 516.558 1200.83 515.897 1199.78C515.235 1198.72 514.297 1197.95 513.081 1197.48C511.886 1196.99 510.467 1196.74 508.825 1196.74H504.889L505.881 1190.73H508.665C510.009 1190.73 511.225 1190.49 512.312 1190.02C513.422 1189.55 514.297 1188.84 514.937 1187.88C515.598 1186.92 515.929 1185.71 515.929 1184.26C515.929 1182.34 515.257 1180.85 513.913 1179.78C512.569 1178.7 510.883 1178.15 508.857 1178.15C507.022 1178.15 505.39 1178.49 503.961 1179.18C502.531 1179.86 501.145 1180.83 499.801 1182.09L495.417 1177.45C497.379 1175.55 499.545 1174.13 501.913 1173.19C504.302 1172.25 506.883 1171.78 509.657 1171.78Z" fill="#2400FF"/>
<rect x="376" y="632" width="272" height="272" stroke="#DEC9FF" stroke-width="2"/>
<rect x="512" y="575.667" width="272" height="272" transform="rotate(45 512 575.667)" stroke="#00C0A9" stroke-width="2"/>
<rect x="511.924" y="-92" width="130" height="130" transform="rotate(45 511.924 -92)" fill="#CECCCB"/>
<rect x="511.924" y="157" width="38.3991" height="38.3991" transform="rotate(45 511.924 157)" fill="#2400FF"/>
<rect x="511.924" y="1335" width="38.3991" height="38.3991" transform="rotate(45 511.924 1335)" fill="#2400FF"/>
<rect x="511.924" y="1444" width="130" height="130" transform="rotate(45 511.924 1444)" fill="white"/>
</g>
<defs>
<clipPath id="clip0_4901_6820">
<rect width="1024" height="1536" fill="white"/>
</clipPath>
</defs>
</svg>
