{
	"asset": {
		"version": "2.0",
		"generator": "Maxon Cinema 4D 2026.2.0 (#200000219)"
	},
	"scenes": [
		{
			"nodes": [
				0
			]
		}
	],
	"materials": [
		{
			"pbrMetallicRoughness": {
				"baseColorFactor": [
					0.9999940991401672,
					0.9999985694885254,
					1.0,
					1.0
				],
				"metallicFactor": 0.0,
				"roughnessFactor": 0.0
			},
			"emissiveFactor": [
				0.0,
				0.0,
				0.0
			],
			"alphaMode": "OPAQUE",
			"doubleSided": false,
			"name": "Glass 3 - Glass"
		}
	],
	"nodes": [
		{
			"name": "Glass 3",
			"mesh": 0,
			"translation": [
				-0.00013283018779475242,
				0.010152473114430905,
				-0.06077756732702255
			],
			"rotation": [
				0.0,
				0.0,
				0.0,
				-1.0
			],
			"scale": [
				1.0,
				1.0,
				1.0
			]
		}
	],
	"meshes": [
		{
			"name": "Glass 3",
			"primitives": [
				{
					"attributes": {
						"POSITION": 1,
						"NORMAL": 2,
						"TEXCOORD_0": 3
					},
					"indices": 0,
					"material": 0
				}
			]
		}
	],
	"accessors": [
		{
			"bufferView": 0,
			"type": "SCALAR",
			"componentType": 5123,
			"count": 21360,
			"byteOffset": 0,
			"min": [
				0
			],
			"max": [
				21359
			]
		},
		{
			"bufferView": 1,
			"type": "VEC3",
			"componentType": 5126,
			"count": 21360,
			"byteOffset": 0,
			"min": [
				-0.36335715651512148,
				0.0,
				-0.36335715651512148
			],
			"max": [
				0.36335715651512148,
				1.5098633766174317,
				0.36335715651512148
			]
		},
		{
			"bufferView": 1,
			"type": "VEC3",
			"componentType": 5126,
			"count": 21360,
			"byteOffset": 12,
			"min": [
				-1.0,
				-1.0,
				-1.0
			],
			"max": [
				1.0,
				1.0,
				1.0
			]
		},
		{
			"bufferView": 1,
			"type": "VEC2",
			"componentType": 5126,
			"count": 21360,
			"byteOffset": 24,
			"min": [
				0.078125,
				-10.693790435791016
			],
			"max": [
				16.541160583496095,
				-4.431450843811035
			]
		}
	],
	"bufferViews": [
		{
			"buffer": 0,
			"byteOffset": 0,
			"byteLength": 42720,
			"target": 34963
		},
		{
			"buffer": 0,
			"byteOffset": 42720,
			"byteLength": 683520,
			"target": 34962,
			"byteStride": 32
		}
	],
	"buffers": [
		{
			"uri": "data:application/octet-stream;base64,",
			"byteLength": 726240
		}
	]
}