<svg width="1024" height="1024" viewBox="0 0 1024 1024" fill="none"
  xmlns="http://www.w3.org/2000/svg">
  <g clip-path="url(#clip0_1124_413)">
    <rect width="1024" height="1024" fill="black"/>
    <g clip-path="url(#clip1_1124_413)">
      <rect y="768" width="256" height="256" fill="black"/>
      <path d="M254.793 1023.5H1.20703L128 896.707L254.793 1023.5ZM127.293 896L0.5 1022.79V769.207L127.293 896ZM255.5 1022.79L128.707 896L255.5 769.207V1022.79ZM254.793 768.5L128 895.293L1.20703 768.5H254.793Z" stroke="white"/>
      <path d="M72.2784 942H60.4602L94.642 848.909H106.278L140.46 942H128.642L100.824 863.636H100.097L72.2784 942ZM76.642 905.636H124.278V915.636H76.642V905.636ZM181.676 848.909V942H170.403V860.727H169.858L147.131 875.818V864.364L170.403 848.909H181.676Z" fill="white"/>
    </g>
    <g clip-path="url(#clip2_1124_413)">
      <rect y="512" width="256" height="256" fill="black"/>
      <path d="M254.793 767.5H1.20703L128 640.707L254.793 767.5ZM127.293 640L0.5 766.793V513.207L127.293 640ZM255.5 766.793L128.707 640L255.5 513.207V766.793ZM254.793 512.5L128 639.293L1.20703 512.5H254.793Z" stroke="white"/>
      <path d="M61.0909 686H49.2727L83.4545 592.909H95.0909L129.273 686H117.455L89.6364 607.636H88.9091L61.0909 686ZM65.4545 649.636H113.091V659.636H65.4545V649.636ZM142.136 686V677.818L172.864 644.182C176.47 640.242 179.439 636.818 181.773 633.909C184.106 630.97 185.833 628.212 186.955 625.636C188.106 623.03 188.682 620.303 188.682 617.455C188.682 614.182 187.894 611.348 186.318 608.955C184.773 606.561 182.652 604.712 179.955 603.409C177.258 602.106 174.227 601.455 170.864 601.455C167.288 601.455 164.167 602.197 161.5 603.682C158.864 605.136 156.818 607.182 155.364 609.818C153.939 612.455 153.227 615.545 153.227 619.091H142.5C142.5 613.636 143.758 608.848 146.273 604.727C148.788 600.606 152.212 597.394 156.545 595.091C160.909 592.788 165.803 591.636 171.227 591.636C176.682 591.636 181.515 592.788 185.727 595.091C189.939 597.394 193.242 600.5 195.636 604.409C198.03 608.318 199.227 612.667 199.227 617.455C199.227 620.879 198.606 624.227 197.364 627.5C196.152 630.742 194.03 634.364 191 638.364C188 642.333 183.833 647.182 178.5 652.909L157.591 675.273V676H200.864V686H142.136Z" fill="white"/>
    </g>
    <g clip-path="url(#clip3_1124_413)">
      <rect y="256" width="256" height="256" fill="black"/>
      <path d="M254.793 511.5H1.20703L128 384.707L254.793 511.5ZM127.293 384L0.5 510.793V257.207L127.293 384ZM255.5 510.793L128.707 384L255.5 257.207V510.793ZM254.793 256.5L128 383.293L1.20703 256.5H254.793Z" stroke="white"/>
      <path d="M59.0909 430H47.2727L81.4545 336.909H93.0909L127.273 430H115.455L87.6364 351.636H86.9091L59.0909 430ZM63.4545 393.636H111.091V403.636H63.4545V393.636ZM171.591 431.273C165.591 431.273 160.242 430.242 155.545 428.182C150.879 426.121 147.167 423.258 144.409 419.591C141.682 415.894 140.197 411.606 139.955 406.727H151.409C151.652 409.727 152.682 412.318 154.5 414.5C156.318 416.652 158.697 418.318 161.636 419.5C164.576 420.682 167.833 421.273 171.409 421.273C175.409 421.273 178.955 420.576 182.045 419.182C185.136 417.788 187.561 415.848 189.318 413.364C191.076 410.879 191.955 408 191.955 404.727C191.955 401.303 191.106 398.288 189.409 395.682C187.712 393.045 185.227 390.985 181.955 389.5C178.682 388.015 174.682 387.273 169.955 387.273H162.5V377.273H169.955C173.652 377.273 176.894 376.606 179.682 375.273C182.5 373.939 184.697 372.061 186.273 369.636C187.879 367.212 188.682 364.364 188.682 361.091C188.682 357.939 187.985 355.197 186.591 352.864C185.197 350.53 183.227 348.712 180.682 347.409C178.167 346.106 175.197 345.455 171.773 345.455C168.561 345.455 165.53 346.045 162.682 347.227C159.864 348.379 157.561 350.061 155.773 352.273C153.985 354.455 153.015 357.091 152.864 360.182H141.955C142.136 355.303 143.606 351.03 146.364 347.364C149.121 343.667 152.727 340.788 157.182 338.727C161.667 336.667 166.591 335.636 171.955 335.636C177.712 335.636 182.652 336.803 186.773 339.136C190.894 341.439 194.061 344.485 196.273 348.273C198.485 352.061 199.591 356.152 199.591 360.545C199.591 365.788 198.212 370.258 195.455 373.955C192.727 377.652 189.015 380.212 184.318 381.636V382.364C190.197 383.333 194.788 385.833 198.091 389.864C201.394 393.864 203.045 398.818 203.045 404.727C203.045 409.788 201.667 414.333 198.909 418.364C196.182 422.364 192.455 425.515 187.727 427.818C183 430.121 177.621 431.273 171.591 431.273Z" fill="white"/>
    </g>
    <g clip-path="url(#clip4_1124_413)">
      <rect width="256" height="256" fill="black"/>
      <path d="M254.793 255.5H1.20703L128 128.707L254.793 255.5ZM127.293 128L0.5 254.793V1.20703L127.293 128ZM255.5 254.793L128.707 128L255.5 1.20703V254.793ZM254.793 0.5L128 127.293L1.20703 0.5H254.793Z" stroke="white"/>
      <path d="M59.2784 174H47.4602L81.642 80.9091H93.2784L127.46 174H115.642L87.8239 95.6364H87.0966L59.2784 174ZM63.642 137.636H111.278V147.636H63.642V137.636ZM138.142 154.909V145.636L179.051 80.9091H185.778V95.2727H181.233L150.324 144.182V144.909H205.415V154.909H138.142ZM181.96 174V152.091V147.773V80.9091H192.688V174H181.96Z" fill="white"/>
    </g>
    <g clip-path="url(#clip5_1124_413)">
      <rect x="256" y="768" width="256" height="256" fill="black"/>
      <path d="M510.793 1023.5H257.207L384 896.707L510.793 1023.5ZM383.293 896L256.5 1022.79V769.207L383.293 896ZM511.5 1022.79L384.707 896L511.5 769.207V1022.79ZM510.793 768.5L384 895.293L257.207 768.5H510.793Z" stroke="white"/>
      <path d="M324.398 942V848.909H356.943C363.428 848.909 368.777 850.03 372.989 852.273C377.201 854.485 380.337 857.47 382.398 861.227C384.458 864.955 385.489 869.091 385.489 873.636C385.489 877.636 384.777 880.939 383.352 883.545C381.958 886.152 380.11 888.212 377.807 889.727C375.534 891.242 373.064 892.364 370.398 893.091V894C373.246 894.182 376.11 895.182 378.989 897C381.867 898.818 384.277 901.424 386.216 904.818C388.155 908.212 389.125 912.364 389.125 917.273C389.125 921.939 388.064 926.136 385.943 929.864C383.822 933.591 380.473 936.545 375.898 938.727C371.322 940.909 365.367 942 358.034 942H324.398ZM335.67 932H358.034C365.398 932 370.625 930.576 373.716 927.727C376.837 924.848 378.398 921.364 378.398 917.273C378.398 914.121 377.595 911.212 375.989 908.545C374.383 905.848 372.095 903.697 369.125 902.091C366.155 900.455 362.64 899.636 358.58 899.636H335.67V932ZM335.67 889.818H356.58C359.973 889.818 363.034 889.152 365.761 887.818C368.519 886.485 370.701 884.606 372.307 882.182C373.943 879.758 374.761 876.909 374.761 873.636C374.761 869.545 373.337 866.076 370.489 863.227C367.64 860.348 363.125 858.909 356.943 858.909H335.67V889.818ZM438.739 848.909V942H427.466V860.727H426.92L404.193 875.818V864.364L427.466 848.909H438.739Z" fill="white"/>
    </g>
    <g clip-path="url(#clip6_1124_413)">
      <rect x="256" y="512" width="256" height="256" fill="black"/>
      <path d="M510.793 767.5H257.207L384 640.707L510.793 767.5ZM383.293 640L256.5 766.793V513.207L383.293 640ZM511.5 766.793L384.707 640L511.5 513.207V766.793ZM510.793 512.5L384 639.293L257.207 512.5H510.793Z" stroke="white"/>
      <path d="M315.398 686V592.909H347.943C354.428 592.909 359.777 594.03 363.989 596.273C368.201 598.485 371.337 601.47 373.398 605.227C375.458 608.955 376.489 613.091 376.489 617.636C376.489 621.636 375.777 624.939 374.352 627.545C372.958 630.152 371.11 632.212 368.807 633.727C366.534 635.242 364.064 636.364 361.398 637.091V638C364.246 638.182 367.11 639.182 369.989 641C372.867 642.818 375.277 645.424 377.216 648.818C379.155 652.212 380.125 656.364 380.125 661.273C380.125 665.939 379.064 670.136 376.943 673.864C374.822 677.591 371.473 680.545 366.898 682.727C362.322 684.909 356.367 686 349.034 686H315.398ZM326.67 676H349.034C356.398 676 361.625 674.576 364.716 671.727C367.837 668.848 369.398 665.364 369.398 661.273C369.398 658.121 368.595 655.212 366.989 652.545C365.383 649.848 363.095 647.697 360.125 646.091C357.155 644.455 353.64 643.636 349.58 643.636H326.67V676ZM326.67 633.818H347.58C350.973 633.818 354.034 633.152 356.761 631.818C359.519 630.485 361.701 628.606 363.307 626.182C364.943 623.758 365.761 620.909 365.761 617.636C365.761 613.545 364.337 610.076 361.489 607.227C358.64 604.348 354.125 602.909 347.943 602.909H326.67V633.818ZM397.011 686V677.818L427.739 644.182C431.345 640.242 434.314 636.818 436.648 633.909C438.981 630.97 440.708 628.212 441.83 625.636C442.981 623.03 443.557 620.303 443.557 617.455C443.557 614.182 442.769 611.348 441.193 608.955C439.648 606.561 437.527 604.712 434.83 603.409C432.133 602.106 429.102 601.455 425.739 601.455C422.163 601.455 419.042 602.197 416.375 603.682C413.739 605.136 411.693 607.182 410.239 609.818C408.814 612.455 408.102 615.545 408.102 619.091H397.375C397.375 613.636 398.633 608.848 401.148 604.727C403.663 600.606 407.087 597.394 411.42 595.091C415.784 592.788 420.678 591.636 426.102 591.636C431.557 591.636 436.39 592.788 440.602 595.091C444.814 597.394 448.117 600.5 450.511 604.409C452.905 608.318 454.102 612.667 454.102 617.455C454.102 620.879 453.481 624.227 452.239 627.5C451.027 630.742 448.905 634.364 445.875 638.364C442.875 642.333 438.708 647.182 433.375 652.909L412.466 675.273V676H455.739V686H397.011Z" fill="white"/>
    </g>
    <g clip-path="url(#clip7_1124_413)">
      <rect x="256" y="256" width="256" height="256" fill="black"/>
      <path d="M510.793 511.5H257.207L384 384.707L510.793 511.5ZM383.293 384L256.5 510.793V257.207L383.293 384ZM511.5 510.793L384.707 384L511.5 257.207V510.793ZM510.793 256.5L384 383.293L257.207 256.5H510.793Z" stroke="white"/>
      <path d="M313.398 430V336.909H345.943C352.428 336.909 357.777 338.03 361.989 340.273C366.201 342.485 369.337 345.47 371.398 349.227C373.458 352.955 374.489 357.091 374.489 361.636C374.489 365.636 373.777 368.939 372.352 371.545C370.958 374.152 369.11 376.212 366.807 377.727C364.534 379.242 362.064 380.364 359.398 381.091V382C362.246 382.182 365.11 383.182 367.989 385C370.867 386.818 373.277 389.424 375.216 392.818C377.155 396.212 378.125 400.364 378.125 405.273C378.125 409.939 377.064 414.136 374.943 417.864C372.822 421.591 369.473 424.545 364.898 426.727C360.322 428.909 354.367 430 347.034 430H313.398ZM324.67 420H347.034C354.398 420 359.625 418.576 362.716 415.727C365.837 412.848 367.398 409.364 367.398 405.273C367.398 402.121 366.595 399.212 364.989 396.545C363.383 393.848 361.095 391.697 358.125 390.091C355.155 388.455 351.64 387.636 347.58 387.636H324.67V420ZM324.67 377.818H345.58C348.973 377.818 352.034 377.152 354.761 375.818C357.519 374.485 359.701 372.606 361.307 370.182C362.943 367.758 363.761 364.909 363.761 361.636C363.761 357.545 362.337 354.076 359.489 351.227C356.64 348.348 352.125 346.909 345.943 346.909H324.67V377.818ZM426.466 431.273C420.466 431.273 415.117 430.242 410.42 428.182C405.754 426.121 402.042 423.258 399.284 419.591C396.557 415.894 395.072 411.606 394.83 406.727H406.284C406.527 409.727 407.557 412.318 409.375 414.5C411.193 416.652 413.572 418.318 416.511 419.5C419.451 420.682 422.708 421.273 426.284 421.273C430.284 421.273 433.83 420.576 436.92 419.182C440.011 417.788 442.436 415.848 444.193 413.364C445.951 410.879 446.83 408 446.83 404.727C446.83 401.303 445.981 398.288 444.284 395.682C442.587 393.045 440.102 390.985 436.83 389.5C433.557 388.015 429.557 387.273 424.83 387.273H417.375V377.273H424.83C428.527 377.273 431.769 376.606 434.557 375.273C437.375 373.939 439.572 372.061 441.148 369.636C442.754 367.212 443.557 364.364 443.557 361.091C443.557 357.939 442.86 355.197 441.466 352.864C440.072 350.53 438.102 348.712 435.557 347.409C433.042 346.106 430.072 345.455 426.648 345.455C423.436 345.455 420.405 346.045 417.557 347.227C414.739 348.379 412.436 350.061 410.648 352.273C408.86 354.455 407.89 357.091 407.739 360.182H396.83C397.011 355.303 398.481 351.03 401.239 347.364C403.996 343.667 407.602 340.788 412.057 338.727C416.542 336.667 421.466 335.636 426.83 335.636C432.587 335.636 437.527 336.803 441.648 339.136C445.769 341.439 448.936 344.485 451.148 348.273C453.36 352.061 454.466 356.152 454.466 360.545C454.466 365.788 453.087 370.258 450.33 373.955C447.602 377.652 443.89 380.212 439.193 381.636V382.364C445.072 383.333 449.663 385.833 452.966 389.864C456.269 393.864 457.92 398.818 457.92 404.727C457.92 409.788 456.542 414.333 453.784 418.364C451.057 422.364 447.33 425.515 442.602 427.818C437.875 430.121 432.496 431.273 426.466 431.273Z" fill="white"/>
    </g>
    <g clip-path="url(#clip8_1124_413)">
      <rect x="256" width="256" height="256" fill="black"/>
      <path d="M510.793 255.5H257.207L384 128.707L510.793 255.5ZM383.293 128L256.5 254.793V1.20703L383.293 128ZM511.5 254.793L384.707 128L511.5 1.20703V254.793ZM510.793 0.5L384 127.293L257.207 0.5H510.793Z" stroke="white"/>
      <path d="M312.585 174V80.9091H345.131C351.616 80.9091 356.964 82.0303 361.176 84.2727C365.388 86.4848 368.525 89.4697 370.585 93.2273C372.646 96.9545 373.676 101.091 373.676 105.636C373.676 109.636 372.964 112.939 371.54 115.545C370.146 118.152 368.297 120.212 365.994 121.727C363.722 123.242 361.252 124.364 358.585 125.091V126C361.434 126.182 364.297 127.182 367.176 129C370.055 130.818 372.464 133.424 374.403 136.818C376.343 140.212 377.312 144.364 377.312 149.273C377.312 153.939 376.252 158.136 374.131 161.864C372.009 165.591 368.661 168.545 364.085 170.727C359.509 172.909 353.555 174 346.222 174H312.585ZM323.858 164H346.222C353.585 164 358.813 162.576 361.903 159.727C365.025 156.848 366.585 153.364 366.585 149.273C366.585 146.121 365.782 143.212 364.176 140.545C362.57 137.848 360.282 135.697 357.312 134.091C354.343 132.455 350.828 131.636 346.767 131.636H323.858V164ZM323.858 121.818H344.767C348.161 121.818 351.222 121.152 353.949 119.818C356.706 118.485 358.888 116.606 360.494 114.182C362.131 111.758 362.949 108.909 362.949 105.636C362.949 101.545 361.525 98.0758 358.676 95.2273C355.828 92.3485 351.313 90.9091 345.131 90.9091H323.858V121.818ZM392.017 154.909V145.636L432.926 80.9091H439.653V95.2727H435.108L404.199 144.182V144.909H459.29V154.909H392.017ZM435.835 174V152.091V147.773V80.9091H446.562V174H435.835Z" fill="white"/>
    </g>
    <g clip-path="url(#clip9_1124_413)">
      <rect x="512" y="768" width="256" height="256" fill="black"/>
      <path d="M766.793 1023.5H513.207L640 896.707L766.793 1023.5ZM639.293 896L512.5 1022.79V769.207L639.293 896ZM767.5 1022.79L640.707 896L767.5 769.207V1022.79ZM766.793 768.5L640 895.293L513.207 768.5H766.793Z" stroke="white"/>
      <path d="M650.369 878H639.097C638.43 874.758 637.263 871.909 635.597 869.455C633.96 867 631.96 864.939 629.597 863.273C627.263 861.576 624.672 860.303 621.824 859.455C618.975 858.606 616.006 858.182 612.915 858.182C607.278 858.182 602.172 859.606 597.597 862.455C593.051 865.303 589.43 869.5 586.733 875.045C584.066 880.591 582.733 887.394 582.733 895.455C582.733 903.515 584.066 910.318 586.733 915.864C589.43 921.409 593.051 925.606 597.597 928.455C602.172 931.303 607.278 932.727 612.915 932.727C616.006 932.727 618.975 932.303 621.824 931.455C624.672 930.606 627.263 929.348 629.597 927.682C631.96 925.985 633.96 923.909 635.597 921.455C637.263 918.97 638.43 916.121 639.097 912.909H650.369C649.521 917.667 647.975 921.924 645.733 925.682C643.491 929.439 640.703 932.636 637.369 935.273C634.036 937.879 630.294 939.864 626.142 941.227C622.021 942.591 617.612 943.273 612.915 943.273C604.975 943.273 597.915 941.333 591.733 937.455C585.551 933.576 580.688 928.061 577.142 920.909C573.597 913.758 571.824 905.273 571.824 895.455C571.824 885.636 573.597 877.152 577.142 870C580.688 862.848 585.551 857.333 591.733 853.455C597.915 849.576 604.975 847.636 612.915 847.636C617.612 847.636 622.021 848.318 626.142 849.682C630.294 851.045 634.036 853.045 637.369 855.682C640.703 858.288 643.491 861.47 645.733 865.227C647.975 868.955 649.521 873.212 650.369 878ZM699.676 848.909V942H688.403V860.727H687.858L665.131 875.818V864.364L688.403 848.909H699.676Z" fill="white"/>
    </g>
    <g clip-path="url(#clip10_1124_413)">
      <rect x="512" y="512" width="256" height="256" fill="black"/>
      <path d="M766.793 767.5H513.207L640 640.707L766.793 767.5ZM639.293 640L512.5 766.793V513.207L639.293 640ZM767.5 766.793L640.707 640L767.5 513.207V766.793ZM766.793 512.5L640 639.293L513.207 512.5H766.793Z" stroke="white"/>
      <path d="M641.369 622H630.097C629.43 618.758 628.263 615.909 626.597 613.455C624.96 611 622.96 608.939 620.597 607.273C618.263 605.576 615.672 604.303 612.824 603.455C609.975 602.606 607.006 602.182 603.915 602.182C598.278 602.182 593.172 603.606 588.597 606.455C584.051 609.303 580.43 613.5 577.733 619.045C575.066 624.591 573.733 631.394 573.733 639.455C573.733 647.515 575.066 654.318 577.733 659.864C580.43 665.409 584.051 669.606 588.597 672.455C593.172 675.303 598.278 676.727 603.915 676.727C607.006 676.727 609.975 676.303 612.824 675.455C615.672 674.606 618.263 673.348 620.597 671.682C622.96 669.985 624.96 667.909 626.597 665.455C628.263 662.97 629.43 660.121 630.097 656.909H641.369C640.521 661.667 638.975 665.924 636.733 669.682C634.491 673.439 631.703 676.636 628.369 679.273C625.036 681.879 621.294 683.864 617.142 685.227C613.021 686.591 608.612 687.273 603.915 687.273C595.975 687.273 588.915 685.333 582.733 681.455C576.551 677.576 571.688 672.061 568.142 664.909C564.597 657.758 562.824 649.273 562.824 639.455C562.824 629.636 564.597 621.152 568.142 614C571.688 606.848 576.551 601.333 582.733 597.455C588.915 593.576 595.975 591.636 603.915 591.636C608.612 591.636 613.021 592.318 617.142 593.682C621.294 595.045 625.036 597.045 628.369 599.682C631.703 602.288 634.491 605.47 636.733 609.227C638.975 612.955 640.521 617.212 641.369 622ZM657.949 686V677.818L688.676 644.182C692.282 640.242 695.252 636.818 697.585 633.909C699.919 630.97 701.646 628.212 702.767 625.636C703.919 623.03 704.494 620.303 704.494 617.455C704.494 614.182 703.706 611.348 702.131 608.955C700.585 606.561 698.464 604.712 695.767 603.409C693.07 602.106 690.04 601.455 686.676 601.455C683.1 601.455 679.979 602.197 677.312 603.682C674.676 605.136 672.631 607.182 671.176 609.818C669.752 612.455 669.04 615.545 669.04 619.091H658.312C658.312 613.636 659.57 608.848 662.085 604.727C664.6 600.606 668.025 597.394 672.358 595.091C676.722 592.788 681.616 591.636 687.04 591.636C692.494 591.636 697.328 592.788 701.54 595.091C705.752 597.394 709.055 600.5 711.449 604.409C713.843 608.318 715.04 612.667 715.04 617.455C715.04 620.879 714.419 624.227 713.176 627.5C711.964 630.742 709.843 634.364 706.812 638.364C703.812 642.333 699.646 647.182 694.312 652.909L673.403 675.273V676H716.676V686H657.949Z" fill="white"/>
    </g>
    <g clip-path="url(#clip11_1124_413)">
      <rect x="512" y="256" width="256" height="256" fill="black"/>
      <path d="M766.793 511.5H513.207L640 384.707L766.793 511.5ZM639.293 384L512.5 510.793V257.207L639.293 384ZM767.5 510.793L640.707 384L767.5 257.207V510.793ZM766.793 256.5L640 383.293L513.207 256.5H766.793Z" stroke="white"/>
      <path d="M639.369 366H628.097C627.43 362.758 626.263 359.909 624.597 357.455C622.96 355 620.96 352.939 618.597 351.273C616.263 349.576 613.672 348.303 610.824 347.455C607.975 346.606 605.006 346.182 601.915 346.182C596.278 346.182 591.172 347.606 586.597 350.455C582.051 353.303 578.43 357.5 575.733 363.045C573.066 368.591 571.733 375.394 571.733 383.455C571.733 391.515 573.066 398.318 575.733 403.864C578.43 409.409 582.051 413.606 586.597 416.455C591.172 419.303 596.278 420.727 601.915 420.727C605.006 420.727 607.975 420.303 610.824 419.455C613.672 418.606 616.263 417.348 618.597 415.682C620.96 413.985 622.96 411.909 624.597 409.455C626.263 406.97 627.43 404.121 628.097 400.909H639.369C638.521 405.667 636.975 409.924 634.733 413.682C632.491 417.439 629.703 420.636 626.369 423.273C623.036 425.879 619.294 427.864 615.142 429.227C611.021 430.591 606.612 431.273 601.915 431.273C593.975 431.273 586.915 429.333 580.733 425.455C574.551 421.576 569.688 416.061 566.142 408.909C562.597 401.758 560.824 393.273 560.824 383.455C560.824 373.636 562.597 365.152 566.142 358C569.688 350.848 574.551 345.333 580.733 341.455C586.915 337.576 593.975 335.636 601.915 335.636C606.612 335.636 611.021 336.318 615.142 337.682C619.294 339.045 623.036 341.045 626.369 343.682C629.703 346.288 632.491 349.47 634.733 353.227C636.975 356.955 638.521 361.212 639.369 366ZM687.403 431.273C681.403 431.273 676.055 430.242 671.358 428.182C666.691 426.121 662.979 423.258 660.222 419.591C657.494 415.894 656.009 411.606 655.767 406.727H667.222C667.464 409.727 668.494 412.318 670.312 414.5C672.131 416.652 674.509 418.318 677.449 419.5C680.388 420.682 683.646 421.273 687.222 421.273C691.222 421.273 694.767 420.576 697.858 419.182C700.949 417.788 703.373 415.848 705.131 413.364C706.888 410.879 707.767 408 707.767 404.727C707.767 401.303 706.919 398.288 705.222 395.682C703.525 393.045 701.04 390.985 697.767 389.5C694.494 388.015 690.494 387.273 685.767 387.273H678.312V377.273H685.767C689.464 377.273 692.706 376.606 695.494 375.273C698.313 373.939 700.509 372.061 702.085 369.636C703.691 367.212 704.494 364.364 704.494 361.091C704.494 357.939 703.797 355.197 702.403 352.864C701.009 350.53 699.04 348.712 696.494 347.409C693.979 346.106 691.009 345.455 687.585 345.455C684.373 345.455 681.343 346.045 678.494 347.227C675.676 348.379 673.373 350.061 671.585 352.273C669.797 354.455 668.828 357.091 668.676 360.182H657.767C657.949 355.303 659.419 351.03 662.176 347.364C664.934 343.667 668.54 340.788 672.994 338.727C677.479 336.667 682.403 335.636 687.767 335.636C693.525 335.636 698.464 336.803 702.585 339.136C706.706 341.439 709.873 344.485 712.085 348.273C714.297 352.061 715.403 356.152 715.403 360.545C715.403 365.788 714.025 370.258 711.267 373.955C708.54 377.652 704.828 380.212 700.131 381.636V382.364C706.009 383.333 710.6 385.833 713.903 389.864C717.206 393.864 718.858 398.818 718.858 404.727C718.858 409.788 717.479 414.333 714.722 418.364C711.994 422.364 708.267 425.515 703.54 427.818C698.813 430.121 693.434 431.273 687.403 431.273Z" fill="white"/>
    </g>
    <g clip-path="url(#clip12_1124_413)">
      <rect x="512" width="256" height="256" fill="black"/>
      <path d="M766.793 255.5H513.207L640 128.707L766.793 255.5ZM639.293 128L512.5 254.793V1.20703L639.293 128ZM767.5 254.793L640.707 128L767.5 1.20703V254.793ZM766.793 0.5L640 127.293L513.207 0.5H766.793Z" stroke="white"/>
      <path d="M638.557 110H627.284C626.617 106.758 625.451 103.909 623.784 101.455C622.148 99 620.148 96.9394 617.784 95.2727C615.451 93.5758 612.86 92.303 610.011 91.4545C607.163 90.6061 604.193 90.1818 601.102 90.1818C595.466 90.1818 590.36 91.6061 585.784 94.4545C581.239 97.303 577.617 101.5 574.92 107.045C572.254 112.591 570.92 119.394 570.92 127.455C570.92 135.515 572.254 142.318 574.92 147.864C577.617 153.409 581.239 157.606 585.784 160.455C590.36 163.303 595.466 164.727 601.102 164.727C604.193 164.727 607.163 164.303 610.011 163.455C612.86 162.606 615.451 161.348 617.784 159.682C620.148 157.985 622.148 155.909 623.784 153.455C625.451 150.97 626.617 148.121 627.284 144.909H638.557C637.708 149.667 636.163 153.924 633.92 157.682C631.678 161.439 628.89 164.636 625.557 167.273C622.223 169.879 618.481 171.864 614.33 173.227C610.208 174.591 605.799 175.273 601.102 175.273C593.163 175.273 586.102 173.333 579.92 169.455C573.739 165.576 568.875 160.061 565.33 152.909C561.784 145.758 560.011 137.273 560.011 127.455C560.011 117.636 561.784 109.152 565.33 102C568.875 94.8485 573.739 89.3333 579.92 85.4545C586.102 81.5758 593.163 79.6364 601.102 79.6364C605.799 79.6364 610.208 80.3182 614.33 81.6818C618.481 83.0455 622.223 85.0455 625.557 87.6818C628.89 90.2879 631.678 93.4697 633.92 97.2273C636.163 100.955 637.708 105.212 638.557 110ZM652.955 154.909V145.636L693.864 80.9091H700.591V95.2727H696.045L665.136 144.182V144.909H720.227V154.909H652.955ZM696.773 174V152.091V147.773V80.9091H707.5V174H696.773Z" fill="white"/>
    </g>
    <g clip-path="url(#clip13_1124_413)">
      <rect x="768" y="768" width="256" height="256" fill="black"/>
      <path d="M1022.79 1023.5H769.207L896 896.707L1022.79 1023.5ZM895.293 896L768.5 1022.79V769.207L895.293 896ZM1023.5 1022.79L896.707 896L1023.5 769.207V1022.79ZM1022.79 768.5L896 895.293L769.207 768.5H1022.79Z" stroke="white"/>
      <path d="M860.25 942H831.523V848.909H861.523C870.553 848.909 878.28 850.773 884.705 854.5C891.129 858.197 896.053 863.515 899.477 870.455C902.902 877.364 904.614 885.636 904.614 895.273C904.614 904.97 902.886 913.318 899.432 920.318C895.977 927.288 890.947 932.652 884.341 936.409C877.735 940.136 869.705 942 860.25 942ZM842.795 932H859.523C867.22 932 873.598 930.515 878.659 927.545C883.72 924.576 887.492 920.348 889.977 914.864C892.462 909.379 893.705 902.848 893.705 895.273C893.705 887.758 892.477 881.288 890.023 875.864C887.568 870.409 883.902 866.227 879.023 863.318C874.144 860.379 868.068 858.909 860.795 858.909H842.795V932ZM954.614 848.909V942H943.341V860.727H942.795L920.068 875.818V864.364L943.341 848.909H954.614Z" fill="white"/>
    </g>
    <g clip-path="url(#clip14_1124_413)">
      <rect x="768" y="512" width="256" height="256" fill="black"/>
      <path d="M1022.79 767.5H769.207L896 640.707L1022.79 767.5ZM895.293 640L768.5 766.793V513.207L895.293 640ZM1023.5 766.793L896.707 640L1023.5 513.207V766.793ZM1022.79 512.5L896 639.293L769.207 512.5H1022.79Z" stroke="white"/>
      <path d="M851.25 686H822.523V592.909H852.523C861.553 592.909 869.28 594.773 875.705 598.5C882.129 602.197 887.053 607.515 890.477 614.455C893.902 621.364 895.614 629.636 895.614 639.273C895.614 648.97 893.886 657.318 890.432 664.318C886.977 671.288 881.947 676.652 875.341 680.409C868.735 684.136 860.705 686 851.25 686ZM833.795 676H850.523C858.22 676 864.598 674.515 869.659 671.545C874.72 668.576 878.492 664.348 880.977 658.864C883.462 653.379 884.705 646.848 884.705 639.273C884.705 631.758 883.477 625.288 881.023 619.864C878.568 614.409 874.902 610.227 870.023 607.318C865.144 604.379 859.068 602.909 851.795 602.909H833.795V676ZM912.886 686V677.818L943.614 644.182C947.22 640.242 950.189 636.818 952.523 633.909C954.856 630.97 956.583 628.212 957.705 625.636C958.856 623.03 959.432 620.303 959.432 617.455C959.432 614.182 958.644 611.348 957.068 608.955C955.523 606.561 953.402 604.712 950.705 603.409C948.008 602.106 944.977 601.455 941.614 601.455C938.038 601.455 934.917 602.197 932.25 603.682C929.614 605.136 927.568 607.182 926.114 609.818C924.689 612.455 923.977 615.545 923.977 619.091H913.25C913.25 613.636 914.508 608.848 917.023 604.727C919.538 600.606 922.962 597.394 927.295 595.091C931.659 592.788 936.553 591.636 941.977 591.636C947.432 591.636 952.265 592.788 956.477 595.091C960.689 597.394 963.992 600.5 966.386 604.409C968.78 608.318 969.977 612.667 969.977 617.455C969.977 620.879 969.356 624.227 968.114 627.5C966.902 630.742 964.78 634.364 961.75 638.364C958.75 642.333 954.583 647.182 949.25 652.909L928.341 675.273V676H971.614V686H912.886Z" fill="white"/>
    </g>
    <g clip-path="url(#clip15_1124_413)">
      <rect x="768" y="256" width="256" height="256" fill="black"/>
      <path d="M1022.79 511.5H769.207L896 384.707L1022.79 511.5ZM895.293 384L768.5 510.793V257.207L895.293 384ZM1023.5 510.793L896.707 384L1023.5 257.207V510.793ZM1022.79 256.5L896 383.293L769.207 256.5H1022.79Z" stroke="white"/>
      <path d="M849.25 430H820.523V336.909H850.523C859.553 336.909 867.28 338.773 873.705 342.5C880.129 346.197 885.053 351.515 888.477 358.455C891.902 365.364 893.614 373.636 893.614 383.273C893.614 392.97 891.886 401.318 888.432 408.318C884.977 415.288 879.947 420.652 873.341 424.409C866.735 428.136 858.705 430 849.25 430ZM831.795 420H848.523C856.22 420 862.598 418.515 867.659 415.545C872.72 412.576 876.492 408.348 878.977 402.864C881.462 397.379 882.705 390.848 882.705 383.273C882.705 375.758 881.477 369.288 879.023 363.864C876.568 358.409 872.902 354.227 868.023 351.318C863.144 348.379 857.068 346.909 849.795 346.909H831.795V420ZM942.341 431.273C936.341 431.273 930.992 430.242 926.295 428.182C921.629 426.121 917.917 423.258 915.159 419.591C912.432 415.894 910.947 411.606 910.705 406.727H922.159C922.402 409.727 923.432 412.318 925.25 414.5C927.068 416.652 929.447 418.318 932.386 419.5C935.326 420.682 938.583 421.273 942.159 421.273C946.159 421.273 949.705 420.576 952.795 419.182C955.886 417.788 958.311 415.848 960.068 413.364C961.826 410.879 962.705 408 962.705 404.727C962.705 401.303 961.856 398.288 960.159 395.682C958.462 393.045 955.977 390.985 952.705 389.5C949.432 388.015 945.432 387.273 940.705 387.273H933.25V377.273H940.705C944.402 377.273 947.644 376.606 950.432 375.273C953.25 373.939 955.447 372.061 957.023 369.636C958.629 367.212 959.432 364.364 959.432 361.091C959.432 357.939 958.735 355.197 957.341 352.864C955.947 350.53 953.977 348.712 951.432 347.409C948.917 346.106 945.947 345.455 942.523 345.455C939.311 345.455 936.28 346.045 933.432 347.227C930.614 348.379 928.311 350.061 926.523 352.273C924.735 354.455 923.765 357.091 923.614 360.182H912.705C912.886 355.303 914.356 351.03 917.114 347.364C919.871 343.667 923.477 340.788 927.932 338.727C932.417 336.667 937.341 335.636 942.705 335.636C948.462 335.636 953.402 336.803 957.523 339.136C961.644 341.439 964.811 344.485 967.023 348.273C969.235 352.061 970.341 356.152 970.341 360.545C970.341 365.788 968.962 370.258 966.205 373.955C963.477 377.652 959.765 380.212 955.068 381.636V382.364C960.947 383.333 965.538 385.833 968.841 389.864C972.144 393.864 973.795 398.818 973.795 404.727C973.795 409.788 972.417 414.333 969.659 418.364C966.932 422.364 963.205 425.515 958.477 427.818C953.75 430.121 948.371 431.273 942.341 431.273Z" fill="white"/>
    </g>
    <g clip-path="url(#clip16_1124_413)">
      <rect x="768" width="256" height="256" fill="black"/>
      <path d="M1022.79 255.5H769.207L896 128.707L1022.79 255.5ZM895.293 128L768.5 254.793V1.20703L895.293 128ZM1023.5 254.793L896.707 128L1023.5 1.20703V254.793ZM1022.79 0.5L896 127.293L769.207 0.5H1022.79Z" stroke="white"/>
      <path d="M849.438 174H820.71V80.9091H850.71C859.741 80.9091 867.468 82.7727 873.892 86.5C880.316 90.197 885.241 95.5151 888.665 102.455C892.089 109.364 893.801 117.636 893.801 127.273C893.801 136.97 892.074 145.318 888.619 152.318C885.165 159.288 880.134 164.652 873.528 168.409C866.922 172.136 858.892 174 849.438 174ZM831.983 164H848.71C856.407 164 862.786 162.515 867.847 159.545C872.907 156.576 876.68 152.348 879.165 146.864C881.65 141.379 882.892 134.848 882.892 127.273C882.892 119.758 881.665 113.288 879.21 107.864C876.756 102.409 873.089 98.2273 868.21 95.3182C863.331 92.3788 857.256 90.9091 849.983 90.9091H831.983V164ZM908.892 154.909V145.636L949.801 80.9091H956.528V95.2727H951.983L921.074 144.182V144.909H976.165V154.909H908.892ZM952.71 174V152.091V147.773V80.9091H963.438V174H952.71Z" fill="white"/>
    </g>
  </g>
  <defs>
    <clipPath id="clip0_1124_413">
      <rect width="1024" height="1024" fill="white"/>
    </clipPath>
    <clipPath id="clip1_1124_413">
      <rect width="256" height="256" fill="white" transform="translate(0 768)"/>
    </clipPath>
    <clipPath id="clip2_1124_413">
      <rect width="256" height="256" fill="white" transform="translate(0 512)"/>
    </clipPath>
    <clipPath id="clip3_1124_413">
      <rect width="256" height="256" fill="white" transform="translate(0 256)"/>
    </clipPath>
    <clipPath id="clip4_1124_413">
      <rect width="256" height="256" fill="white"/>
    </clipPath>
    <clipPath id="clip5_1124_413">
      <rect width="256" height="256" fill="white" transform="translate(256 768)"/>
    </clipPath>
    <clipPath id="clip6_1124_413">
      <rect width="256" height="256" fill="white" transform="translate(256 512)"/>
    </clipPath>
    <clipPath id="clip7_1124_413">
      <rect width="256" height="256" fill="white" transform="translate(256 256)"/>
    </clipPath>
    <clipPath id="clip8_1124_413">
      <rect width="256" height="256" fill="white" transform="translate(256)"/>
    </clipPath>
    <clipPath id="clip9_1124_413">
      <rect width="256" height="256" fill="white" transform="translate(512 768)"/>
    </clipPath>
    <clipPath id="clip10_1124_413">
      <rect width="256" height="256" fill="white" transform="translate(512 512)"/>
    </clipPath>
    <clipPath id="clip11_1124_413">
      <rect width="256" height="256" fill="white" transform="translate(512 256)"/>
    </clipPath>
    <clipPath id="clip12_1124_413">
      <rect width="256" height="256" fill="white" transform="translate(512)"/>
    </clipPath>
    <clipPath id="clip13_1124_413">
      <rect width="256" height="256" fill="white" transform="translate(768 768)"/>
    </clipPath>
    <clipPath id="clip14_1124_413">
      <rect width="256" height="256" fill="white" transform="translate(768 512)"/>
    </clipPath>
    <clipPath id="clip15_1124_413">
      <rect width="256" height="256" fill="white" transform="translate(768 256)"/>
    </clipPath>
    <clipPath id="clip16_1124_413">
      <rect width="256" height="256" fill="white" transform="translate(768)"/>
    </clipPath>
  </defs>
</svg>
